<?xml version="1.0" encoding="UTF-8" standalone="no"?>
<!-- Created with Inkscape (http://www.inkscape.org/) -->

<svg
   xmlns:dc="http://purl.org/dc/elements/1.1/"
   xmlns:cc="http://creativecommons.org/ns#"
   xmlns:rdf="http://www.w3.org/1999/02/22-rdf-syntax-ns#"
   xmlns:svg="http://www.w3.org/2000/svg"
   xmlns="http://www.w3.org/2000/svg"
   xmlns:xlink="http://www.w3.org/1999/xlink"
   xmlns:sodipodi="http://sodipodi.sourceforge.net/DTD/sodipodi-0.dtd"
   xmlns:inkscape="http://www.inkscape.org/namespaces/inkscape"
   width="1024"
   height="768"
   id="svg2"
   sodipodi:version="0.32"
   inkscape:version="0.47 r22583"
   version="1.0"
   inkscape:export-filename="background.png"
   inkscape:export-xdpi="90"
   inkscape:export-ydpi="90"
   sodipodi:docname="background.svg"
   inkscape:output_extension="org.inkscape.output.svg.inkscape">
  <defs
     id="defs4">
    <linearGradient
       id="linearGradient3594">
      <stop
         style="stop-color:#092e20;stop-opacity:1;"
         offset="0"
         id="stop3596" />
      <stop
         style="stop-color:#234f32;stop-opacity:1;"
         offset="1"
         id="stop3598" />
    </linearGradient>
    <inkscape:perspective
       sodipodi:type="inkscape:persp3d"
       inkscape:vp_x="0 : 526.18109 : 1"
       inkscape:vp_y="0 : 1000 : 0"
       inkscape:vp_z="744.09448 : 526.18109 : 1"
       inkscape:persp3d-origin="372.04724 : 350.78739 : 1"
       id="perspective10" />
    <linearGradient
       inkscape:collect="always"
       xlink:href="#linearGradient3594"
       id="linearGradient3600"
       x1="27.507229"
       y1="-1.1024839"
       x2="27.507229"
       y2="318.89752"
       gradientUnits="userSpaceOnUse"
       gradientTransform="matrix(1.8260909,0,0,2.3999999,0,-446.4566)" />
    <inkscape:perspective
       id="perspective2876"
       inkscape:persp3d-origin="0.5 : 0.33333333 : 1"
       inkscape:vp_z="1 : 0.5 : 1"
       inkscape:vp_y="0 : 1000 : 0"
       inkscape:vp_x="0 : 0.5 : 1"
       sodipodi:type="inkscape:persp3d" />
    <inkscape:perspective
       id="perspective2924"
       inkscape:persp3d-origin="0.5 : 0.33333333 : 1"
       inkscape:vp_z="1 : 0.5 : 1"
       inkscape:vp_y="0 : 1000 : 0"
       inkscape:vp_x="0 : 0.5 : 1"
       sodipodi:type="inkscape:persp3d" />
    <inkscape:perspective
       id="perspective2957"
       inkscape:persp3d-origin="0.5 : 0.33333333 : 1"
       inkscape:vp_z="1 : 0.5 : 1"
       inkscape:vp_y="0 : 1000 : 0"
       inkscape:vp_x="0 : 0.5 : 1"
       sodipodi:type="inkscape:persp3d" />
    <inkscape:perspective
       id="perspective2999"
       inkscape:persp3d-origin="0.5 : 0.33333333 : 1"
       inkscape:vp_z="1 : 0.5 : 1"
       inkscape:vp_y="0 : 1000 : 0"
       inkscape:vp_x="0 : 0.5 : 1"
       sodipodi:type="inkscape:persp3d" />
  </defs>
  <sodipodi:namedview
     id="base"
     pagecolor="#ffffff"
     bordercolor="#666666"
     borderopacity="1.0"
     gridtolerance="10000"
     guidetolerance="10"
     objecttolerance="10"
     inkscape:pageopacity="0.0"
     inkscape:pageshadow="2"
     inkscape:zoom="0.39001132"
     inkscape:cx="633.62152"
     inkscape:cy="559.40739"
     inkscape:document-units="px"
     inkscape:current-layer="layer1"
     showgrid="false"
     units="cm"
     inkscape:window-width="1280"
     inkscape:window-height="723"
     inkscape:window-x="0"
     inkscape:window-y="25"
     inkscape:window-maximized="0" />
  <metadata
     id="metadata7">
    <rdf:RDF>
      <cc:Work
         rdf:about="">
        <dc:format>image/svg+xml</dc:format>
        <dc:type
           rdf:resource="http://purl.org/dc/dcmitype/StillImage" />
        <dc:title />
      </cc:Work>
    </rdf:RDF>
  </metadata>
  <g
     inkscape:label="Layer 1"
     inkscape:groupmode="layer"
     id="layer1"
     transform="translate(0,449.10236)">
    <rect
       style="fill:#e3dbdb;fill-opacity:1;fill-rule:nonzero;stroke:none;stroke-width:1;marker:none;visibility:visible;display:inline;overflow:visible;enable-background:accumulate"
       id="rect2380"
       width="1024"
       height="768"
       x="0"
       y="-449.10233" />
    <rect
       style="fill:url(#linearGradient3600);fill-opacity:1;fill-rule:nonzero;stroke:none;stroke-width:1;marker:none;visibility:visible;display:inline;overflow:visible;enable-background:accumulate"
       id="rect2383"
       width="100.4614"
       height="768"
       x="0"
       y="-449.10257" />
    <g
       transform="matrix(0,-2.339816,2.339816,0,-16.922009,-420.46022)"
       style="font-size:29.40587807px;font-style:normal;font-variant:normal;font-weight:normal;font-stretch:normal;fill:#92cc47;fill-opacity:1;stroke:none;font-family:Monospace;-inkscape-font-specification:Monospace"
       id="text2816">
      <path
         d="m -306.38159,17.882935 16.35415,0 0,2.440917 -6.70534,0 0,18.996083 -2.91474,0 0,-18.996083 -6.73407,0 0,-2.440917"
         id="path2821" />
      <path
         d="m -283.10672,36.936451 c 2.44091,2e-6 4.14477,-0.598262 5.11157,-1.794793 0.96678,-1.206095 1.45018,-3.378988 1.45019,-6.518686 -10e-6,-3.168393 -0.48341,-5.350858 -1.45019,-6.547402 -0.95723,-1.206082 -2.66109,-1.809132 -5.11157,-1.809151 l -1.3784,0 0,16.670032 1.3784,0 m 0.0574,-19.053516 c 3.27369,2.1e-5 5.68589,0.871093 7.2366,2.613218 1.55068,1.742162 2.32603,4.451099 2.32605,8.126819 -2e-5,3.656598 -0.77537,6.355963 -2.32605,8.098104 -1.55071,1.732573 -3.96291,2.598859 -7.2366,2.598859 l -4.35058,0 0,-21.437 4.35058,0"
         id="path2823" />
      <path
         d="m -265.41724,36.936451 c 2.44091,2e-6 4.14476,-0.598262 5.11157,-1.794793 0.96678,-1.206095 1.45018,-3.378988 1.45019,-6.518686 -10e-6,-3.168393 -0.48341,-5.350858 -1.45019,-6.547402 -0.95724,-1.206082 -2.66109,-1.809132 -5.11157,-1.809151 l -1.3784,0 0,16.670032 1.3784,0 m 0.0574,-19.053516 c 3.27369,2.1e-5 5.68589,0.871093 7.2366,2.613218 1.55069,1.742162 2.32604,4.451099 2.32605,8.126819 -1e-5,3.656598 -0.77536,6.355963 -2.32605,8.098104 -1.55071,1.732573 -3.96291,2.598859 -7.2366,2.598859 l -4.35058,0 0,-21.437 4.35058,0"
         id="path2825" />
      <path
         d="m -222.32787,23.79857 0,2.584501 c -0.75622,-0.440309 -1.51721,-0.77055 -2.28297,-0.990725 -0.76579,-0.220147 -1.54593,-0.330227 -2.34041,-0.330242 -1.19654,1.5e-5 -2.09154,0.196245 -2.68501,0.588692 -0.58391,0.382903 -0.87587,0.971594 -0.87586,1.766076 -1e-5,0.717928 0.22016,1.253972 0.66048,1.608134 0.44032,0.354182 1.53634,0.698782 3.28806,1.0338 l 1.06252,0.201017 c 1.31138,0.248887 2.30211,0.746642 2.97218,1.493267 0.67961,0.746641 1.01942,1.718221 1.01944,2.914743 -2e-5,1.588993 -0.56478,2.833381 -1.69429,3.733168 -1.12953,0.890217 -2.69937,1.335325 -4.70953,1.335326 -0.7945,-1e-6 -1.62729,-0.08615 -2.49835,-0.25845 -0.87108,-0.162728 -1.81394,-0.411606 -2.82859,-0.746634 l 0,-2.728084 c 0.98593,0.50733 1.92879,0.890219 2.82859,1.148667 0.89978,0.248879 1.75171,0.373318 2.55578,0.373316 1.1678,2e-6 2.07238,-0.234517 2.71373,-0.703558 0.64133,-0.478608 0.962,-1.143877 0.96201,-1.995809 -1e-5,-1.225239 -1.17261,-2.072381 -3.5178,-2.541426 l -0.11486,-0.02872 -0.99073,-0.201017 c -1.52199,-0.296731 -2.63236,-0.794486 -3.33113,-1.493267 -0.69878,-0.708335 -1.04816,-1.670343 -1.04816,-2.886026 0,-1.541115 0.52168,-2.72807 1.56506,-3.560868 1.04336,-0.84234 2.53184,-1.263517 4.46544,-1.263534 0.86149,1.7e-5 1.68949,0.08138 2.48399,0.244092 0.79449,0.153172 1.57462,0.387691 2.34041,0.703558"
         id="path2827" />
      <path
         d="m -202.64258,30.618781 0,1.292251 -11.4436,0 0,0.08615 c 0,1.751723 0.45468,3.106192 1.36404,4.06341 0.91893,0.957225 2.21118,1.435836 3.87676,1.435834 0.84234,2e-6 1.72299,-0.134009 2.64193,-0.402034 0.91892,-0.26802 1.90007,-0.674839 2.94346,-1.220458 l 0,2.627576 c -1.0051,0.411606 -1.97668,0.717917 -2.91474,0.918933 -0.92852,0.210589 -1.82831,0.315883 -2.69937,0.315884 -2.49836,-1e-6 -4.45109,-0.746634 -5.8582,-2.239901 -1.40712,-1.502836 -2.11068,-3.570435 -2.11068,-6.202803 0,-2.565346 0.6892,-4.6138 2.0676,-6.145369 1.3784,-1.53154 3.21626,-2.297317 5.5136,-2.297334 2.04845,1.7e-5 3.66137,0.694002 4.83876,2.081959 1.18694,1.387986 1.78042,3.283285 1.78044,5.685902 m -2.64194,-0.77535 c -0.0383,-1.550689 -0.40683,-2.728072 -1.10559,-3.532151 -0.68921,-0.813626 -1.68472,-1.220445 -2.98653,-1.220459 -1.27312,1.4e-5 -2.32127,0.421192 -3.14448,1.263534 -0.82322,0.842368 -1.3114,2.010178 -1.46455,3.503435 l 8.70115,-0.01436"
         id="path2829" />
      <path
         d="m -191.21335,24.875446 c 0.32545,-0.689185 0.73705,-1.196513 1.23482,-1.521984 0.50731,-0.335012 1.11515,-0.502525 1.82351,-0.502542 1.29223,1.7e-5 2.20159,0.502558 2.72808,1.507626 0.53603,0.995525 0.80405,2.876466 0.80407,5.642827 l 0,9.318562 -2.4122,0 0,-9.203695 c -2e-5,-2.268606 -0.12924,-3.675722 -0.38768,-4.221352 -0.24889,-0.555175 -0.70836,-0.832769 -1.3784,-0.832784 -0.76579,1.5e-5 -1.29226,0.296753 -1.57942,0.890217 -0.2776,0.583919 -0.4164,1.97189 -0.41639,4.163919 l 0,9.203695 -2.4122,0 0,-9.203695 c -1e-5,-2.297323 -0.1388,-3.714011 -0.41639,-4.250069 -0.26803,-0.53603 -0.75621,-0.804052 -1.46455,-0.804067 -0.69878,1.5e-5 -1.18696,0.296753 -1.46455,0.890217 -0.26803,0.583919 -0.40204,1.97189 -0.40203,4.163919 l 0,9.203695 -2.39785,0 0,-16.08134 2.39785,0 0,1.378401 c 0.31587,-0.574318 0.70834,-1.009854 1.17738,-1.306609 0.4786,-0.306295 1.01944,-0.45945 1.62249,-0.459467 0.72748,1.7e-5 1.33053,0.16753 1.80915,0.502542 0.48818,0.335044 0.86628,0.842371 1.13431,1.521984"
         id="path2831" />
      <path
         d="m -153.22118,25.291838 0,-8.313478 2.64193,0 0,22.341575 -2.64193,0 0,-2.024526 c -0.44033,0.794496 -1.02902,1.402332 -1.76608,1.823509 -0.72749,0.411606 -1.56985,0.617408 -2.52706,0.617409 -1.94317,-1e-6 -3.47473,-0.75142 -4.59467,-2.25426 -1.11038,-1.512408 -1.66557,-3.594365 -1.66557,-6.245877 0,-2.613207 0.55997,-4.661661 1.67993,-6.145369 1.11994,-1.493252 2.64671,-2.239884 4.58031,-2.239901 0.96678,1.7e-5 1.81871,0.210605 2.55578,0.631767 0.73705,0.411621 1.31617,1.014671 1.73736,1.809151 m -7.76786,6.001785 c -1e-5,2.048463 0.32545,3.594376 0.97637,4.637744 0.6509,1.043375 1.61291,1.565061 2.88602,1.565059 1.2731,2e-6 2.23989,-0.52647 2.90039,-1.579417 0.67004,-1.052941 1.00507,-2.594068 1.00508,-4.623386 -1e-5,-2.038874 -0.33504,-3.58 -1.00508,-4.623385 -0.6605,-1.052931 -1.62729,-1.579403 -2.90039,-1.579417 -1.27311,1.4e-5 -2.23512,0.5217 -2.88602,1.565059 -0.65092,1.043384 -0.97638,2.589297 -0.97637,4.637743"
         id="path2833" />
      <path
         d="m -131.88469,30.618781 0,1.292251 -11.4436,0 0,0.08615 c 0,1.751723 0.45468,3.106192 1.36404,4.06341 0.91893,0.957225 2.21118,1.435836 3.87675,1.435834 0.84235,2e-6 1.72299,-0.134009 2.64194,-0.402034 0.91892,-0.26802 1.90007,-0.674839 2.94346,-1.220458 l 0,2.627576 c -1.0051,0.411606 -1.97668,0.717917 -2.91474,0.918933 -0.92852,0.210589 -1.82831,0.315883 -2.69937,0.315884 -2.49836,-1e-6 -4.45109,-0.746634 -5.8582,-2.239901 -1.40712,-1.502836 -2.11068,-3.570435 -2.11068,-6.202803 0,-2.565346 0.6892,-4.6138 2.0676,-6.145369 1.3784,-1.53154 3.21626,-2.297317 5.5136,-2.297334 2.04845,1.7e-5 3.66137,0.694002 4.83876,2.081959 1.18694,1.387986 1.78042,3.283285 1.78044,5.685902 m -2.64194,-0.77535 c -0.0383,-1.550689 -0.40683,-2.728072 -1.10559,-3.532151 -0.68921,-0.813626 -1.68472,-1.220445 -2.98653,-1.220459 -1.27312,1.4e-5 -2.32128,0.421192 -3.14448,1.263534 -0.82322,0.842368 -1.3114,2.010178 -1.46455,3.503435 l 8.70115,-0.01436"
         id="path2835" />
      <path
         d="m -116.19102,23.79857 0,2.584501 c -0.75622,-0.440309 -1.51721,-0.77055 -2.28297,-0.990725 -0.76579,-0.220147 -1.54593,-0.330227 -2.34041,-0.330242 -1.19654,1.5e-5 -2.09154,0.196245 -2.68501,0.588692 -0.58391,0.382903 -0.87587,0.971594 -0.87586,1.766076 -1e-5,0.717928 0.22015,1.253972 0.66048,1.608134 0.44032,0.354182 1.53634,0.698782 3.28806,1.0338 l 1.06252,0.201017 c 1.31138,0.248887 2.30211,0.746642 2.97217,1.493267 0.67962,0.746641 1.01943,1.718221 1.01945,2.914743 -2e-5,1.588993 -0.56478,2.833381 -1.69429,3.733168 -1.12953,0.890217 -2.69938,1.335325 -4.70953,1.335326 -0.7945,-1e-6 -1.62729,-0.08615 -2.49835,-0.25845 -0.87108,-0.162728 -1.81394,-0.411606 -2.8286,-0.746634 l 0,-2.728084 c 0.98594,0.50733 1.9288,0.890219 2.8286,1.148667 0.89978,0.248879 1.75171,0.373318 2.55578,0.373316 1.1678,2e-6 2.07238,-0.234517 2.71373,-0.703558 0.64132,-0.478608 0.96199,-1.143877 0.96201,-1.995809 -2e-5,-1.225239 -1.17261,-2.072381 -3.5178,-2.541426 l -0.11486,-0.02872 -0.99073,-0.201017 c -1.52199,-0.296731 -2.63237,-0.794486 -3.33113,-1.493267 -0.69878,-0.708335 -1.04817,-1.670343 -1.04816,-2.886026 -1e-5,-1.541115 0.52168,-2.72807 1.56506,-3.560868 1.04336,-0.84234 2.53184,-1.263517 4.46544,-1.263534 0.86149,1.7e-5 1.68949,0.08138 2.48399,0.244092 0.79448,0.153172 1.57462,0.387691 2.34041,0.703558"
         id="path2837" />
      <path
         d="m -97.238016,38.50151 c -0.708359,0.411606 -1.440634,0.717917 -2.196826,0.918933 -0.746648,0.210589 -1.512428,0.315883 -2.297338,0.315884 -2.48878,-1e-6 -4.43673,-0.746634 -5.84384,-2.239901 -1.39755,-1.493264 -2.09632,-3.560863 -2.09632,-6.202803 0,-2.641923 0.69877,-4.709522 2.09632,-6.202802 1.40711,-1.493252 3.35506,-2.239884 5.84384,-2.239901 0.77534,1.7e-5 1.53155,0.100525 2.268621,0.301525 0.737048,0.201033 1.478895,0.51213 2.225543,0.933292 l 0,2.77116 c -0.698787,-0.622182 -1.402345,-1.072076 -2.110676,-1.349684 -0.698788,-0.277581 -1.493278,-0.416378 -2.383488,-0.416392 -1.656,1.4e-5 -2.92911,0.536058 -3.81931,1.608134 -0.89023,1.072101 -1.33534,2.603655 -1.33533,4.594668 -1e-5,1.981457 0.4451,3.513012 1.33533,4.594669 0.89978,1.072092 2.17288,1.608136 3.81931,1.608134 0.91893,2e-6 1.742136,-0.138796 2.469638,-0.416392 0.727475,-0.287164 1.402317,-0.727486 2.024526,-1.320967 l 0,2.742443"
         id="path2839" />
      <path
         d="m -91.982869,33.231999 0,-9.964687 2.641934,0 0,9.964687 c -5e-6,1.445411 0.253658,2.507927 0.760992,3.187551 0.516894,0.679631 1.311387,1.019444 2.383484,1.019442 1.24438,2e-6 2.196815,-0.435534 2.85731,-1.306608 0.660471,-0.880641 0.990713,-2.139388 0.990725,-3.776244 l 0,-9.088828 2.656293,0 0,16.052623 -2.656293,0 0,-2.412201 c -0.469051,0.928507 -1.110389,1.632065 -1.924017,2.110676 -0.804077,0.478611 -1.74694,0.717916 -2.828593,0.717917 -1.646429,-1e-6 -2.871673,-0.536045 -3.675735,-1.608134 -0.80407,-1.08166 -1.206103,-2.713722 -1.2061,-4.896194"
         id="path2841" />
      <path
         d="m -67.918283,33.490449 c -9e-6,1.186961 0.215366,2.081963 0.646125,2.68501 0.440312,0.603052 1.086437,0.904577 1.938376,0.904575 l 3.087043,0 0,2.239901 -3.345493,0 c -1.579427,0 -2.804671,-0.507328 -3.675735,-1.521984 -0.861507,-1.014653 -1.292257,-2.450486 -1.292251,-4.307502 l 0,-14.60243 -4.235709,0 0,-2.067601 6.877644,0 0,16.670031"
         id="path2843" />
      <path
         d="m -54.019416,37.295409 0,8.141178 -2.656293,0 0,-22.197992 2.656293,0 0,2.053243 c 0.440316,-0.79448 1.024222,-1.39753 1.751717,-1.809151 0.737054,-0.421162 1.584195,-0.63175 2.541426,-0.631767 1.94315,1.7e-5 3.465133,0.751436 4.565952,2.254259 1.110363,1.502853 1.665551,3.58481 1.665567,6.245878 -1.6e-5,2.613223 -0.555204,4.666463 -1.665567,6.159727 -1.110391,1.483695 -2.632374,2.225542 -4.565952,2.225543 -0.976376,-1e-6 -1.833089,-0.205803 -2.570143,-0.617409 -0.727495,-0.421177 -1.301828,-1.029013 -1.723,-1.823509 m 7.753503,-6.001786 c -1.3e-5,-2.048446 -0.325469,-3.594359 -0.976367,-4.637743 -0.641351,-1.043359 -1.598573,-1.565045 -2.871668,-1.565059 -1.282686,1.4e-5 -2.254266,0.526486 -2.914743,1.579417 -0.660489,1.043385 -0.990731,2.584511 -0.990725,4.623385 -6e-6,2.029318 0.330236,3.570445 0.990725,4.623386 0.660477,1.052947 1.632057,1.579419 2.914743,1.579417 1.273095,2e-6 2.230317,-0.521684 2.871668,-1.565059 0.650898,-1.043368 0.976354,-2.589281 0.976367,-4.637744"
         id="path2845" />
      <path
         d="m -31.634771,31.23619 -0.875859,0 c -1.541136,8e-6 -2.70416,0.272816 -3.489076,0.818425 -0.775355,0.536052 -1.16303,1.340118 -1.163026,2.412201 -4e-6,0.966799 0.291949,1.718218 0.875859,2.25426 0.5839,0.536046 1.392752,0.804068 2.426559,0.804066 1.454969,2e-6 2.598849,-0.502539 3.431643,-1.507625 0.832772,-1.014652 1.253949,-2.412195 1.263534,-4.192635 l 0,-0.588692 -2.469634,0 m 5.125927,-1.091234 0,9.174979 -2.656293,0 0,-2.383484 c -0.564773,0.957224 -1.277903,1.665568 -2.139392,2.125034 -0.851938,0.449894 -1.890523,0.674841 -3.11576,0.674842 -1.636856,-1e-6 -2.943464,-0.459467 -3.919826,-1.378401 -0.97637,-0.928504 -1.464553,-2.168106 -1.464551,-3.71881 -2e-6,-1.789999 0.598262,-3.149254 1.794792,-4.077768 1.206096,-0.928496 2.97217,-1.392749 5.298228,-1.392759 l 3.546509,0 0,-0.416392 c -0.0096,-1.282666 -0.33504,-2.211171 -0.976367,-2.785517 -0.64135,-0.583892 -1.665577,-0.875845 -3.072684,-0.875859 -0.899797,1.4e-5 -1.809158,0.129239 -2.728085,0.387675 -0.918938,0.258464 -1.81394,0.636566 -2.685009,1.134309 l 0,-2.641934 c 0.976363,-0.373302 1.909654,-0.650896 2.799876,-0.832784 0.899782,-0.191428 1.770854,-0.28715 2.613218,-0.287167 1.330529,1.7e-5 2.464837,0.196247 3.402926,0.588692 0.947638,0.392477 1.713415,0.981168 2.297334,1.766076 0.36373,0.478625 0.62218,1.072102 0.775351,1.780434 0.15314,0.698784 0.229718,1.751728 0.229733,3.158834"
         id="path2847" />
      <path
         d="m -10.054178,23.79857 0,2.584501 c -0.756219,-0.440309 -1.51721,-0.77055 -2.282975,-0.990725 -0.765789,-0.220147 -1.545925,-0.330227 -2.34041,-0.330242 -1.196536,1.5e-5 -2.091538,0.196245 -2.685009,0.588692 -0.583912,0.382903 -0.875865,0.971594 -0.875859,1.766076 -6e-6,0.717928 0.220155,1.253972 0.660484,1.608134 0.440315,0.354182 1.536334,0.698782 3.288059,1.0338 l 1.062518,0.201017 c 1.311382,0.248887 2.302107,0.746642 2.972176,1.493267 0.6796133,0.746641 1.019427,1.718221 1.0194418,2.914743 -1.48e-5,1.588993 -0.5647756,2.833381 -1.6942838,3.733168 -1.129535,0.890217 -2.699378,1.335325 -4.709535,1.335326 -0.794503,-1e-6 -1.627286,-0.08615 -2.498351,-0.25845 -0.871078,-0.162728 -1.813941,-0.411606 -2.828593,-0.746634 l 0,-2.728084 c 0.985935,0.50733 1.928798,0.890219 2.828593,1.148667 0.899782,0.248879 1.751709,0.373318 2.555784,0.373316 1.167802,2e-6 2.072376,-0.234517 2.713726,-0.703558 0.641327,-0.478608 0.961997,-1.143877 0.962009,-1.995809 -1.2e-5,-1.225239 -1.172609,-2.072381 -3.517793,-2.541426 l -0.114867,-0.02872 -0.990725,-0.201017 c -1.52199,-0.296731 -2.632367,-0.794486 -3.331135,-1.493267 -0.698776,-0.708335 -1.048162,-1.670343 -1.048159,-2.886026 -3e-6,-1.541115 0.521683,-2.72807 1.565059,-3.560868 1.043367,-0.84234 2.531847,-1.263517 4.465444,-1.263534 0.86149,1.7e-5 1.689487,0.08138 2.483992,0.244092 0.794483,0.153172 1.574618,0.387691 2.340409,0.703558"
         id="path2849" />
    </g>
  </g>
</svg>
