<?xml version="1.0" encoding="UTF-8" standalone="no"?>
<!-- Created with Inkscape (http://www.inkscape.org/) -->

<svg
   xmlns:dc="http://purl.org/dc/elements/1.1/"
   xmlns:cc="http://creativecommons.org/ns#"
   xmlns:rdf="http://www.w3.org/1999/02/22-rdf-syntax-ns#"
   xmlns:svg="http://www.w3.org/2000/svg"
   xmlns="http://www.w3.org/2000/svg"
   xmlns:xlink="http://www.w3.org/1999/xlink"
   xmlns:sodipodi="http://sodipodi.sourceforge.net/DTD/sodipodi-0.dtd"
   xmlns:inkscape="http://www.inkscape.org/namespaces/inkscape"
   width="1024"
   height="768"
   id="svg2"
   sodipodi:version="0.32"
   inkscape:version="0.47 r22583"
   version="1.0"
   inkscape:export-filename="cover.png"
   inkscape:export-xdpi="90"
   inkscape:export-ydpi="90"
   sodipodi:docname="cover.svg"
   inkscape:output_extension="org.inkscape.output.svg.inkscape">
  <defs
     id="defs4">
    <linearGradient
       id="linearGradient3594">
      <stop
         style="stop-color:#092e20;stop-opacity:1;"
         offset="0"
         id="stop3596" />
      <stop
         style="stop-color:#234f32;stop-opacity:1;"
         offset="1"
         id="stop3598" />
    </linearGradient>
    <inkscape:perspective
       sodipodi:type="inkscape:persp3d"
       inkscape:vp_x="0 : 526.18109 : 1"
       inkscape:vp_y="0 : 1000 : 0"
       inkscape:vp_z="744.09448 : 526.18109 : 1"
       inkscape:persp3d-origin="372.04724 : 350.78739 : 1"
       id="perspective10" />
    <linearGradient
       inkscape:collect="always"
       xlink:href="#linearGradient3594"
       id="linearGradient3600"
       x1="27.507229"
       y1="-1.1024839"
       x2="27.507229"
       y2="318.89752"
       gradientUnits="userSpaceOnUse"
       gradientTransform="matrix(18.613289,0,0,2.3999999,0,-446.4564)" />
    <inkscape:perspective
       id="perspective2876"
       inkscape:persp3d-origin="0.5 : 0.33333333 : 1"
       inkscape:vp_z="1 : 0.5 : 1"
       inkscape:vp_y="0 : 1000 : 0"
       inkscape:vp_x="0 : 0.5 : 1"
       sodipodi:type="inkscape:persp3d" />
    <inkscape:perspective
       id="perspective2924"
       inkscape:persp3d-origin="0.5 : 0.33333333 : 1"
       inkscape:vp_z="1 : 0.5 : 1"
       inkscape:vp_y="0 : 1000 : 0"
       inkscape:vp_x="0 : 0.5 : 1"
       sodipodi:type="inkscape:persp3d" />
    <inkscape:perspective
       id="perspective2957"
       inkscape:persp3d-origin="0.5 : 0.33333333 : 1"
       inkscape:vp_z="1 : 0.5 : 1"
       inkscape:vp_y="0 : 1000 : 0"
       inkscape:vp_x="0 : 0.5 : 1"
       sodipodi:type="inkscape:persp3d" />
    <inkscape:perspective
       id="perspective2999"
       inkscape:persp3d-origin="0.5 : 0.33333333 : 1"
       inkscape:vp_z="1 : 0.5 : 1"
       inkscape:vp_y="0 : 1000 : 0"
       inkscape:vp_x="0 : 0.5 : 1"
       sodipodi:type="inkscape:persp3d" />
  </defs>
  <sodipodi:namedview
     id="base"
     pagecolor="#ffffff"
     bordercolor="#666666"
     borderopacity="1.0"
     gridtolerance="10000"
     guidetolerance="10"
     objecttolerance="10"
     inkscape:pageopacity="0.0"
     inkscape:pageshadow="2"
     inkscape:zoom="0.5"
     inkscape:cx="176.18619"
     inkscape:cy="172.23955"
     inkscape:document-units="px"
     inkscape:current-layer="layer1"
     showgrid="false"
     units="cm"
     inkscape:window-width="1278"
     inkscape:window-height="723"
     inkscape:window-x="0"
     inkscape:window-y="25"
     inkscape:window-maximized="0" />
  <metadata
     id="metadata7">
    <rdf:RDF>
      <cc:Work
         rdf:about="">
        <dc:format>image/svg+xml</dc:format>
        <dc:type
           rdf:resource="http://purl.org/dc/dcmitype/StillImage" />
        <dc:title />
      </cc:Work>
    </rdf:RDF>
  </metadata>
  <g
     inkscape:label="Layer 1"
     inkscape:groupmode="layer"
     id="layer1"
     transform="translate(0,449.10236)">
    <rect
       style="fill:#e3dbdb;fill-opacity:1;fill-rule:nonzero;stroke:none;stroke-width:1;marker:none;visibility:visible;display:inline;overflow:visible;enable-background:accumulate"
       id="rect2380"
       width="1028.9611"
       height="577.66235"
       x="0"
       y="-258.76468" />
    <rect
       style="fill:url(#linearGradient3600);fill-opacity:1;fill-rule:nonzero;stroke:none;stroke-width:1;marker:none;visibility:visible;display:inline;overflow:visible;enable-background:accumulate"
       id="rect2383"
       width="1024"
       height="768"
       x="0"
       y="-449.10236" />
    <g
       style="font-size:93.44337463px;font-style:normal;font-variant:normal;font-weight:normal;font-stretch:normal;fill:#92cc47;fill-opacity:1;stroke:none;font-family:Sans;-inkscape-font-specification:Helvetica"
       id="text3005">
      <path
         d="m 144.45454,-292.70385 57.62646,0 0,7.75653 -24.18213,0 0,60.36405 -9.2622,0 0,-60.36405 -24.18213,0 0,-7.75653"
         style=""
         id="path2936" />
      <path
         d="m 220.2404,-285.12983 0,52.97254 11.1329,0 c 9.39905,1e-5 16.27346,-2.12923 20.62325,-6.38773 4.3801,-4.25847 6.57018,-10.98079 6.57024,-20.16698 -6e-5,-9.12529 -2.19014,-15.80198 -6.57024,-20.0301 -4.34979,-4.25843 -11.2242,-6.38767 -20.62325,-6.38773 l -11.1329,0 m -9.21658,-7.57402 18.93506,0 c 13.20127,7e-5 22.88932,2.75287 29.06417,8.25842 6.17475,5.47525 9.26215,14.05305 9.26221,25.73343 -6e-5,11.74128 -3.10267,20.36471 -9.30783,25.87031 -6.20528,5.50562 -15.87812,8.25842 -29.01855,8.25842 l -18.93506,0 0,-68.12058"
         style=""
         id="path2938" />
      <path
         d="m 292.14801,-285.12983 0,52.97254 11.1329,0 c 9.39905,1e-5 16.27346,-2.12923 20.62324,-6.38773 4.38011,-4.25847 6.57018,-10.98079 6.57024,-20.16698 -6e-5,-9.12529 -2.19013,-15.80198 -6.57024,-20.0301 -4.34978,-4.25843 -11.22419,-6.38767 -20.62324,-6.38773 l -11.1329,0 m -9.21659,-7.57402 18.93506,0 c 13.20127,7e-5 22.88932,2.75287 29.06418,8.25842 6.17474,5.47525 9.26214,14.05305 9.26221,25.73343 -7e-5,11.74128 -3.10268,20.36471 -9.30784,25.87031 -6.20527,5.50562 -15.87811,8.25842 -29.01855,8.25842 l -18.93506,0 0,-68.12058"
         style=""
         id="path2940" />
      <path
         d="m 427.93291,-252.23302 0,4.1064 -38.60014,0 c 0.365,5.7794 2.09881,10.18997 5.20144,13.23173 3.133,3.01137 7.48274,4.51704 13.04922,4.51704 3.22425,0 6.34206,-0.39543 9.35346,-1.18629 3.04173,-0.79086 6.05309,-1.97715 9.03408,-3.55888 l 0,7.93903 c -3.01141,1.27755 -6.09881,2.25092 -9.26221,2.92011 -3.16349,0.66919 -6.37256,1.00378 -9.62723,1.00379 -8.15198,-1e-5 -14.61575,-2.37259 -19.39132,-7.11776 -4.74518,-4.74516 -7.11776,-11.1633 -7.11776,-19.25445 0,-8.36485 2.25091,-14.99592 6.75275,-19.89322 4.53223,-4.92762 10.63098,-7.39146 18.29628,-7.39151 6.87438,5e-5 12.30395,2.22054 16.28872,6.66149 4.01509,4.41062 6.02266,10.41812 6.02271,18.02252 m -8.3953,-2.46383 c -0.0609,-4.59305 -1.35363,-8.25839 -3.87827,-10.99603 -2.49429,-2.73755 -5.80982,-4.10635 -9.9466,-4.1064 -4.68437,5e-5 -8.44096,1.32322 -11.26979,3.96952 -2.79845,2.64639 -4.41059,6.37256 -4.83642,11.17853 l 29.93108,-0.0456"
         style=""
         id="path2942" />
      <path
         d="m 481.4986,-265.87538 c 2.09877,-3.77176 4.60824,-6.55498 7.5284,-8.34968 2.92004,-1.7946 6.35725,-2.69192 10.31162,-2.69197 5.32304,5e-5 9.42943,1.87074 12.31919,5.61208 2.88961,3.71101 4.33445,9.00369 4.33454,15.87807 l 0,30.84361 -8.44093,0 0,-30.56985 c -8e-5,-4.89723 -0.86698,-8.53215 -2.60072,-10.90477 -1.73389,-2.37254 -4.38023,-3.55883 -7.93904,-3.55888 -4.3498,5e-5 -7.787,1.44489 -10.31162,4.33453 -2.52473,2.88973 -3.78706,6.82883 -3.78701,11.8173 l 0,28.88167 -8.44093,0 0,-30.56985 c -5e-5,-4.92764 -0.86695,-8.56256 -2.60072,-10.90477 -1.73385,-2.37254 -4.41061,-3.55883 -8.03029,-3.55888 -4.28893,5e-5 -7.69572,1.4601 -10.22037,4.38016 -2.5247,2.88973 -3.78703,6.81361 -3.78701,11.77167 l 0,28.88167 -8.44093,0 0,-51.10184 8.44093,0 0,7.93903 c 1.9163,-3.13298 4.21284,-5.44473 6.88962,-6.93525 2.67674,-1.49042 5.85539,-2.23565 9.53597,-2.2357 3.71093,5e-5 6.85916,0.943 9.44472,2.82885 2.61588,1.88595 4.5474,4.62355 5.79458,8.2128"
         style=""
         id="path2944" />
      <path
         d="m 572.11312,-285.12983 0,52.97254 11.13291,0 c 9.39905,1e-5 16.27346,-2.12923 20.62324,-6.38773 4.38011,-4.25847 6.57018,-10.98079 6.57024,-20.16698 -6e-5,-9.12529 -2.19013,-15.80198 -6.57024,-20.0301 -4.34978,-4.25843 -11.22419,-6.38767 -20.62324,-6.38773 l -11.13291,0 m -9.21658,-7.57402 18.93506,0 c 13.20127,7e-5 22.88932,2.75287 29.06418,8.25842 6.17474,5.47525 9.26214,14.05305 9.26221,25.73343 -7e-5,11.74128 -3.10268,20.36471 -9.30784,25.87031 -6.20528,5.50562 -15.87812,8.25842 -29.01855,8.25842 l -18.93506,0 0,-68.12058"
         style=""
         id="path2946" />
      <path
         d="m 634.43912,-275.68511 8.3953,0 0,52.01438 c -10e-6,6.50939 -1.24714,11.22414 -3.74138,14.14426 -2.46385,2.92008 -6.44857,4.38014 -11.95418,4.38015 l -3.19387,0 0,-7.11775 2.23571,0 c 3.19386,-1e-5 5.36873,-0.74525 6.52461,-2.23571 1.15587,-1.46006 1.7338,-4.51704 1.73381,-9.17095 l 0,-52.01438 m 0,-19.89322 8.3953,0 0,10.63101 -8.3953,0 0,-10.63101"
         style=""
         id="path2948" />
      <path
         d="m 683.57901,-250.27107 c -6.78319,3e-5 -11.48273,0.77568 -14.09863,2.32696 -2.61595,1.55133 -3.92391,4.19767 -3.9239,7.93904 -10e-6,2.98095 0.97336,5.35353 2.92011,7.11775 1.97713,1.73382 4.6539,2.60073 8.03029,2.60072 4.65389,1e-5 8.38006,-1.64255 11.17853,-4.92768 2.82881,-3.31552 4.24324,-7.71088 4.24328,-13.1861 l 0,-1.87069 -8.34968,0 m 16.74498,-3.46763 0,29.15543 -8.3953,0 0,-7.75653 c -1.91636,3.10262 -4.30415,5.39916 -7.16339,6.88963 -2.8593,1.46005 -6.35734,2.19007 -10.49413,2.19008 -5.23187,-1e-5 -9.3991,-1.46006 -12.5017,-4.38016 -3.0722,-2.95052 -4.6083,-6.88962 -4.60829,-11.8173 -10e-6,-5.74894 1.91631,-10.08347 5.74896,-13.0036 3.86304,-2.92007 9.61199,-4.38012 17.24687,-4.38016 l 11.77168,0 0,-0.82128 c -4e-5,-3.86302 -1.27759,-6.84395 -3.83264,-8.94282 -2.52471,-2.1292 -6.08359,-3.19382 -10.67664,-3.19387 -2.92013,5e-5 -5.76418,0.34985 -8.53218,1.04942 -2.76803,0.69965 -5.42958,1.74906 -7.98466,3.14824 l 0,-7.75653 c 3.07218,-1.18625 6.05312,-2.06836 8.94282,-2.64635 2.88967,-0.6083 5.70331,-0.91248 8.44093,-0.91253 7.39148,5e-5 12.9123,1.91637 16.56247,5.74896 3.65009,3.83268 5.47515,9.64246 5.4752,17.42937"
         style=""
         id="path2950" />
      <path
         d="m 760.14052,-255.42688 0,30.84361 -8.3953,0 0,-30.56985 c -4e-5,-4.83639 -0.94299,-8.4561 -2.82885,-10.85914 -1.88594,-2.40296 -4.71479,-3.60446 -8.48656,-3.60451 -4.53227,5e-5 -8.10636,1.44489 -10.72226,4.33453 -2.61595,2.88973 -3.92391,6.82883 -3.92389,11.8173 l 0,28.88167 -8.44093,0 0,-51.10184 8.44093,0 0,7.93903 c 2.00755,-3.07214 4.36492,-5.36868 7.07213,-6.88962 2.73757,-1.52084 5.88581,-2.28128 9.44471,-2.28133 5.87059,5e-5 10.31158,1.82511 13.32298,5.4752 3.01131,3.61975 4.51699,8.95807 4.51704,16.01495"
         style=""
         id="path2952" />
      <path
         d="m 810.60359,-250.72734 c -4e-5,-6.08352 -1.26238,-10.79827 -3.78701,-14.14426 -2.4943,-3.34591 -6.00754,-5.01888 -10.53976,-5.01893 -4.50185,5e-5 -8.0151,1.67302 -10.53975,5.01893 -2.49428,3.34599 -3.7414,8.06074 -3.74139,14.14426 -10e-6,6.05316 1.24711,10.7527 3.74139,14.09864 2.52465,3.34596 6.0379,5.01894 10.53975,5.01893 4.53222,1e-5 8.04546,-1.67297 10.53976,-5.01893 2.52463,-3.34594 3.78697,-8.04548 3.78701,-14.09864 m 8.3953,19.80197 c -5e-5,8.69948 -1.93157,15.16325 -5.79458,19.39132 -3.8631,4.25847 -9.77935,6.38772 -17.74877,6.38773 -2.95055,-1e-5 -5.73377,-0.22815 -8.34967,-0.68439 -2.61595,-0.42587 -5.15583,-1.09506 -7.61965,-2.00758 l 0,-8.16717 c 2.46382,1.33837 4.89724,2.32695 7.30026,2.96573 2.40298,0.63877 4.85161,0.95815 7.34589,0.95816 5.50558,-1e-5 9.62719,-1.44485 12.36482,-4.33453 2.73756,-2.85927 4.10636,-7.1938 4.1064,-13.00359 l 0,-4.15203 c -1.73385,3.01137 -3.95435,5.26228 -6.66149,6.75275 -2.70722,1.49047 -5.9467,2.2357 -9.71848,2.2357 -6.26608,0 -11.31542,-2.38779 -15.14804,-7.16338 -3.83265,-4.77558 -5.74897,-11.10247 -5.74896,-18.98069 -1e-5,-7.90858 1.91631,-14.25068 5.74896,-19.02631 3.83262,-4.77554 8.88196,-7.16333 15.14804,-7.16338 3.77178,5e-5 7.01126,0.74528 9.71848,2.2357 2.70714,1.49052 4.92764,3.74144 6.66149,6.75275 l 0,-7.75653 8.3953,0 0,44.75974"
         style=""
         id="path2954" />
      <path
         d="m 856.09335,-269.79928 c -4.50185,5e-5 -8.06073,1.76428 -10.67663,5.2927 -2.61595,3.49808 -3.92391,8.30408 -3.9239,14.41802 -1e-5,6.11399 1.29274,10.9352 3.87827,14.46364 2.61591,3.49805 6.18999,5.24707 10.72226,5.24707 4.47138,0 8.01505,-1.76422 10.63101,-5.29269 2.61589,-3.52845 3.92385,-8.33445 3.92389,-14.41802 -4e-5,-6.05311 -1.308,-10.8439 -3.92389,-14.3724 -2.61596,-3.55883 -6.15963,-5.33827 -10.63101,-5.33832 m 0,-7.11775 c 7.30023,5e-5 13.03397,2.37263 17.20125,7.11775 4.16718,4.74522 6.2508,11.31545 6.25085,19.71072 -5e-5,8.3649 -2.08367,14.93513 -6.25085,19.71071 -4.16728,4.74517 -9.90102,7.11775 -17.20125,7.11776 -7.3307,-1e-5 -13.07965,-2.37259 -17.24687,-7.11776 -4.13682,-4.77558 -6.20523,-11.34581 -6.20523,-19.71071 0,-8.39527 2.06841,-14.9655 6.20523,-19.71072 4.16722,-4.74512 9.91617,-7.1177 17.24687,-7.11775"
         style=""
         id="path2956" />
    </g>
    <g
       style="font-size:72.20779419px;font-style:normal;font-variant:normal;font-weight:normal;font-stretch:normal;fill:#92cc47;fill-opacity:1;stroke:none;font-family:Sans;-inkscape-font-specification:Helvetica"
       id="text3009">
      <path
         d="m 272.84695,-192.44027 0,6.94577 c -2.70313,-1.29274 -5.25343,-2.25645 -7.65092,-2.89114 -2.39756,-0.63459 -4.71281,-0.95191 -6.94577,-0.95195 -3.87837,4e-5 -6.87527,0.75221 -8.99072,2.25649 -2.09197,1.50437 -3.13795,3.64334 -3.13794,6.4169 -1e-5,2.32705 0.69339,4.08993 2.08021,5.28866 1.41029,1.17529 4.06637,2.12725 7.96824,2.85587 l 4.30144,0.88145 c 5.31213,1.01075 9.22574,2.79714 11.74082,5.35917 2.53852,2.53858 3.80779,5.94682 3.80783,10.22474 -4e-5,5.10062 -1.71591,8.96721 -5.14762,11.59978 -3.40828,2.63258 -8.41487,3.94887 -15.01979,3.94887 -2.49156,0 -5.14764,-0.28207 -7.96824,-0.84619 -2.79712,-0.56412 -5.7,-1.39855 -8.70865,-2.5033 l 0,-7.3336 c 2.89112,1.62186 5.72349,2.84413 8.4971,3.6668 2.77359,0.82269 5.50019,1.23403 8.17979,1.23402 4.06637,10e-6 7.2043,-0.79917 9.41381,-2.39752 2.20945,-1.59834 3.31419,-3.87834 3.31423,-6.84 -4e-5,-2.58555 -0.79921,-4.60699 -2.39753,-6.06433 -1.57487,-1.45729 -4.17219,-2.55028 -7.79195,-3.27896 l -4.3367,-0.84619 c -5.31218,-1.0577 -9.15526,-2.71481 -11.52927,-4.97134 -2.37403,-2.25646 -3.56104,-5.39439 -3.56103,-9.4138 -1e-5,-4.65398 1.6336,-8.32078 4.90082,-11.00041 3.29071,-2.67953 7.81544,-4.01933 13.57422,-4.01938 2.46801,5e-5 4.98306,0.22335 7.54515,0.6699 2.56203,0.44665 5.18285,1.11654 7.86247,2.00969"
         style=""
         id="path2911" />
      <path
         d="m 320.62115,-162.89431 0,3.17319 -29.82802,0 c 0.28205,4.46599 1.62184,7.87424 4.01938,10.22474 2.42101,2.32701 5.78224,3.49052 10.0837,3.49051 2.49152,10e-6 4.90079,-0.30556 7.22783,-0.9167 2.35048,-0.61112 4.67749,-1.52782 6.98103,-2.7501 l 0,6.13484 c -2.32705,0.98722 -4.71282,1.73938 -7.15732,2.2565 -2.44456,0.51711 -4.92435,0.77567 -7.43937,0.77567 -6.2994,0 -11.29424,-1.8334 -14.98453,-5.50021 -3.66681,-3.66679 -5.50021,-8.62637 -5.5002,-14.87875 -10e-6,-6.46389 1.73937,-11.588 5.21814,-15.37236 3.50225,-3.8078 8.21503,-5.71171 14.13834,-5.71175 5.31213,4e-5 9.5078,1.71591 12.587,5.14762 3.10264,3.40828 4.65398,8.05054 4.65402,13.9268 m -6.48742,-1.90392 c -0.047,-3.54925 -1.04601,-6.38161 -2.9969,-8.49711 -1.92745,-2.11542 -4.48951,-3.17315 -7.68619,-3.17319 -3.61981,4e-5 -6.52269,1.02251 -8.70865,3.06742 -2.16249,2.04498 -3.40826,4.92436 -3.73732,8.63814 l 23.12906,-0.0353"
         style=""
         id="path2913" />
      <path
         d="m 362.0137,-173.43637 c 1.62182,-2.9146 3.56099,-5.06532 5.81753,-6.45216 2.25644,-1.38676 4.91252,-2.08016 7.96824,-2.0802 4.11334,4e-5 7.28653,1.4456 9.51958,4.3367 2.23293,2.86766 3.34942,6.95755 3.34948,12.26968 l 0,23.83421 -6.52267,0 0,-23.62266 c -6e-5,-3.7843 -0.66996,-6.59317 -2.00969,-8.4266 -1.33985,-1.83336 -3.38479,-2.75006 -6.13484,-2.7501 -3.36128,4e-5 -6.01736,1.11653 -7.96825,3.34948 -1.95096,2.23302 -2.92643,5.27693 -2.92639,9.13175 l 0,22.31813 -6.52267,0 0,-23.62266 c -4e-5,-3.80781 -0.66993,-6.61667 -2.00969,-8.4266 -1.33982,-1.83336 -3.40828,-2.75006 -6.20536,-2.7501 -3.31425,4e-5 -5.94682,1.12828 -7.89773,3.38474 -1.95094,2.23302 -2.9264,5.26518 -2.92639,9.09649 l 0,22.31813 -6.52267,0 0,-39.48863 6.52267,0 0,6.13484 c 1.48081,-2.421 3.25545,-4.20739 5.32392,-5.35917 2.06843,-1.15172 4.52471,-1.72759 7.36886,-1.72763 2.8676,4e-5 5.30038,0.7287 7.29834,2.18598 2.02141,1.45735 3.51399,3.57281 4.47773,6.34638"
         style=""
         id="path2915" />
      <path
         d="m 432.03552,-188.31512 0,40.9342 8.60288,0 c 7.26306,1e-5 12.57522,-1.64535 15.93649,-4.93608 3.38469,-3.2907 5.07706,-8.48533 5.07711,-15.58391 -5e-5,-7.0515 -1.69242,-12.21088 -5.07711,-15.47813 -3.36127,-3.29068 -8.67343,-4.93603 -15.93649,-4.93608 l -8.60288,0 m -7.12206,-5.85278 14.63195,0 c 10.2012,5e-5 17.68758,2.12726 22.45916,6.38164 4.7715,4.23097 7.15727,10.85942 7.15732,19.88535 -5e-5,9.07301 -2.39757,15.73671 -7.19257,19.99113 -4.79509,4.25443 -12.26972,6.38164 -22.42391,6.38164 l -14.63195,0 0,-52.63976"
         style=""
         id="path2917" />
      <path
         d="m 513.97443,-162.89431 0,3.17319 -29.82802,0 c 0.28205,4.46599 1.62184,7.87424 4.01938,10.22474 2.42101,2.32701 5.78224,3.49052 10.0837,3.49051 2.49152,10e-6 4.9008,-0.30556 7.22783,-0.9167 2.35048,-0.61112 4.67749,-1.52782 6.98103,-2.7501 l 0,6.13484 c -2.32704,0.98722 -4.71281,1.73938 -7.15731,2.2565 -2.44457,0.51711 -4.92436,0.77567 -7.43938,0.77567 -6.2994,0 -11.29423,-1.8334 -14.98453,-5.50021 -3.66681,-3.66679 -5.50021,-8.62637 -5.5002,-14.87875 -1e-5,-6.46389 1.73937,-11.588 5.21814,-15.37236 3.50225,-3.8078 8.21503,-5.71171 14.13834,-5.71175 5.31214,4e-5 9.5078,1.71591 12.58701,5.14762 3.10264,3.40828 4.65397,8.05054 4.65401,13.9268 m -6.48742,-1.90392 c -0.047,-3.54925 -1.04601,-6.38161 -2.9969,-8.49711 -1.92745,-2.11542 -4.48951,-3.17315 -7.68618,-3.17319 -3.61981,4e-5 -6.5227,1.02251 -8.70866,3.06742 -2.16248,2.04498 -3.40825,4.92436 -3.73731,8.63814 l 23.12905,-0.0353"
         style=""
         id="path2919" />
      <path
         d="m 549.79628,-179.85327 0,6.13484 c -1.83343,-0.94017 -3.73735,-1.64532 -5.71175,-2.11546 -1.97446,-0.47007 -4.0194,-0.70512 -6.13484,-0.70516 -3.22022,4e-5 -5.64125,0.49365 -7.26309,1.48083 -1.59836,0.98725 -2.39753,2.46807 -2.39752,4.44247 -10e-6,1.50436 0.57586,2.69137 1.72762,3.56103 1.15174,0.84621 3.467,1.65714 6.94577,2.43278 l 2.22124,0.49361 c 4.60698,0.98724 7.87419,2.38579 9.80164,4.19567 1.9509,1.7864 2.92636,4.2897 2.92639,7.50989 -3e-5,3.66681 -1.45735,6.56969 -4.37195,8.70865 -2.89116,2.13897 -6.87528,3.20846 -11.95237,3.20846 -2.11548,0 -4.32496,-0.21155 -6.62845,-0.63464 -2.28001,-0.39959 -4.68928,-1.01072 -7.22783,-1.8334 l 0,-6.69897 c 2.39752,1.24578 4.75978,2.18599 7.0868,2.82062 2.327,0.61114 4.6305,0.9167 6.91051,0.9167 3.05565,0 5.40616,-0.51711 7.05155,-1.55134 1.64533,-1.05772 2.46801,-2.53855 2.46804,-4.44247 -3e-5,-1.76288 -0.59941,-3.11442 -1.79815,-4.05464 -1.17528,-0.94019 -3.7726,-1.84514 -7.79195,-2.71484 l -2.2565,-0.52887 c -4.01939,-0.84617 -6.92227,-2.13895 -8.70865,-3.87835 -1.7864,-1.76286 -2.67959,-4.17213 -2.67959,-7.22783 0,-3.71378 1.31629,-6.5814 3.94887,-8.60288 2.63256,-2.0214 6.36988,-3.03212 11.21195,-3.03216 2.3975,4e-5 4.65399,0.17633 6.76948,0.52886 2.11543,0.35262 4.06636,0.88148 5.85278,1.5866"
         style=""
         id="path2921" />
      <path
         d="m 590.69523,-179.50069 0,6.06432 c -1.83343,-1.01068 -3.67858,-1.76285 -5.53546,-2.25649 -1.83343,-0.51708 -3.69033,-0.77563 -5.57072,-0.77567 -4.20744,4e-5 -7.47465,1.33983 -9.80164,4.01938 -2.32702,2.65611 -3.49052,6.39342 -3.49051,11.21195 -1e-5,4.81857 1.16349,8.56764 3.49051,11.24721 2.32699,2.65609 5.5942,3.98413 9.80164,3.98412 1.88039,10e-6 3.73729,-0.2468 5.57072,-0.74041 1.85688,-0.51711 3.70203,-1.28102 5.53546,-2.29175 l 0,5.99381 c -1.80993,0.84619 -3.69034,1.48083 -5.64123,1.90392 -1.92745,0.42309 -3.98415,0.63464 -6.1701,0.63464 -5.94682,0 -10.67135,-1.86866 -14.1736,-5.60598 -3.50227,-3.73731 -5.2534,-8.77916 -5.2534,-15.12556 0,-6.44038 1.76288,-11.50573 5.28866,-15.19607 3.54926,-3.69027 8.40307,-5.53542 14.56143,-5.53546 1.99791,4e-5 3.94884,0.21158 5.85278,0.63464 1.90389,0.39962 3.74904,1.01076 5.53546,1.8334"
         style=""
         id="path2923" />
      <path
         d="m 601.37831,-157.11205 0,-23.90472 6.48742,0 0,23.65792 c -10e-6,3.73733 0.72865,6.54619 2.18598,8.42659 1.4573,1.85691 3.64328,2.78537 6.55793,2.78536 3.50224,10e-6 6.2641,-1.11649 8.28557,-3.34948 2.04491,-2.23298 3.06738,-5.27689 3.06742,-9.13175 l 0,-22.38864 6.48741,0 0,39.48863 -6.48741,0 0,-6.06432 c -1.57488,2.39752 -3.40828,4.18391 -5.50021,5.35917 -2.06847,1.15175 -4.47775,1.72763 -7.22783,1.72763 -4.53651,0 -7.98001,-1.41031 -10.33051,-4.23093 -2.35052,-2.82061 -3.52578,-6.94576 -3.52577,-12.37546 m 16.32432,-24.85668 0,0"
         style=""
         id="path2925" />
      <path
         d="m 647.88323,-196.38914 6.48742,0 0,54.861 -6.48742,0 0,-54.861"
         style=""
         id="path2927" />
      <path
         d="m 674.18547,-147.45143 0,20.94308 -6.52268,0 0,-54.50842 6.52268,0 0,5.99381 c 1.36328,-2.35048 3.07916,-4.08986 5.14763,-5.21814 2.09193,-1.15172 4.58348,-1.72759 7.47463,-1.72763 4.79502,4e-5 8.68512,1.90395 11.6703,5.71175 3.00862,3.80786 4.51295,8.81445 4.51299,15.01978 -4e-5,6.20537 -1.50437,11.21196 -4.51299,15.01979 -2.98518,3.80783 -6.87528,5.71175 -11.6703,5.71175 -2.89115,0 -5.3827,-0.56413 -7.47463,-1.69237 -2.06847,-1.15175 -3.78435,-2.90289 -5.14763,-5.2534 m 22.07133,-13.78577 c -4e-5,-4.77152 -0.98725,-8.50883 -2.96165,-11.21195 -1.95096,-2.72656 -4.64229,-4.08986 -8.07402,-4.0899 -3.43177,4e-5 -6.13486,1.36334 -8.10927,4.0899 -1.95094,2.70312 -2.9264,6.44043 -2.92639,11.21195 -10e-6,4.77156 0.97545,8.52063 2.92639,11.24721 1.97441,2.7031 4.6775,4.05464 8.10927,4.05464 3.43173,0 6.12306,-1.35154 8.07402,-4.05464 1.9744,-2.72658 2.96161,-6.47565 2.96165,-11.24721"
         style=""
         id="path2929" />
      <path
         d="m 731.69082,-161.37823 c -5.24166,2e-5 -8.8732,0.5994 -10.89463,1.79814 -2.02145,1.19878 -3.03217,3.24373 -3.03216,6.13485 -1e-5,2.30351 0.75215,4.13691 2.25649,5.5002 1.52782,1.3398 3.59627,2.00969 6.20536,2.00969 3.59626,0 6.47564,-1.26927 8.63814,-3.80783 2.18595,-2.56205 3.27893,-5.95854 3.27897,-10.18948 l 0,-1.44557 -6.45217,0 m 12.93959,-2.67959 0,22.52968 -6.48742,0 0,-5.99381 c -1.48086,2.39753 -3.32601,4.17217 -5.53546,5.32392 -2.20951,1.12824 -4.9126,1.69237 -8.10928,1.69237 -4.0429,0 -7.2631,-1.12825 -9.66061,-3.38474 -2.37403,-2.28 -3.56103,-5.32391 -3.56103,-9.13175 0,-4.44246 1.48082,-7.79194 4.44247,-10.04845 2.98514,-2.25647 7.42761,-3.38471 13.32742,-3.38474 l 9.09649,0 0,-0.63464 c -4e-5,-2.98512 -0.98725,-5.28862 -2.96165,-6.91051 -1.95095,-1.64533 -4.70105,-2.468 -8.25031,-2.46804 -2.25651,4e-5 -4.45424,0.27034 -6.59319,0.81093 -2.13898,0.54065 -4.19568,1.35158 -6.1701,2.43278 l 0,-5.99381 c 2.37401,-0.91666 4.67751,-1.59831 6.91051,-2.04495 2.23298,-0.47006 4.4072,-0.70511 6.52268,-0.70515 5.71172,4e-5 9.9779,1.48086 12.79855,4.44247 2.82058,2.96168 4.23089,7.45116 4.23093,13.46844"
         style=""
         id="path2931" />
      <path
         d="m 783.20235,-179.85327 0,6.13484 c -1.83343,-0.94017 -3.73735,-1.64532 -5.71175,-2.11546 -1.97446,-0.47007 -4.0194,-0.70512 -6.13484,-0.70516 -3.22023,4e-5 -5.64125,0.49365 -7.26309,1.48083 -1.59836,0.98725 -2.39754,2.46807 -2.39753,4.44247 -1e-5,1.50436 0.57587,2.69137 1.72763,3.56103 1.15174,0.84621 3.46699,1.65714 6.94577,2.43278 l 2.22124,0.49361 c 4.60698,0.98724 7.87419,2.38579 9.80164,4.19567 1.95089,1.7864 2.92636,4.2897 2.92639,7.50989 -3e-5,3.66681 -1.45735,6.56969 -4.37196,8.70865 -2.89116,2.13897 -6.87527,3.20846 -11.95236,3.20846 -2.11548,0 -4.32496,-0.21155 -6.62845,-0.63464 -2.28001,-0.39959 -4.68928,-1.01072 -7.22783,-1.8334 l 0,-6.69897 c 2.39752,1.24578 4.75978,2.18599 7.0868,2.82062 2.32699,0.61114 4.6305,0.9167 6.91051,0.9167 3.05565,0 5.40616,-0.51711 7.05154,-1.55134 1.64534,-1.05772 2.46801,-2.53855 2.46804,-4.44247 -3e-5,-1.76288 -0.59941,-3.11442 -1.79814,-4.05464 -1.17528,-0.94019 -3.7726,-1.84514 -7.79196,-2.71484 l -2.25649,-0.52887 c -4.01939,-0.84617 -6.92227,-2.13895 -8.70865,-3.87835 -1.7864,-1.76286 -2.67959,-4.17213 -2.67959,-7.22783 0,-3.71378 1.31628,-6.5814 3.94886,-8.60288 2.63257,-2.0214 6.36988,-3.03212 11.21196,-3.03216 2.3975,4e-5 4.65399,0.17633 6.76948,0.52886 2.11543,0.35262 4.06636,0.88148 5.85278,1.5866"
         style=""
         id="path2933" />
    </g>
    <g
       id="text3013"
       style="font-size:20.65263557px;font-style:normal;font-variant:normal;font-weight:normal;font-stretch:normal;fill:#92cc47;fill-opacity:1;stroke:none;font-family:Sans;-inkscape-font-specification:Helvetica"
       transform="matrix(1.8051948,0,0,1.8051948,-712.47365,-21.028812)">
      <path
         id="path2834"
         d="m 606.83308,29.815576 c -1.4992,6e-6 -2.53788,0.171439 -3.11605,0.514299 -0.57817,0.342871 -0.86725,0.92776 -0.86725,1.754668 0,0.658843 0.21513,1.183226 0.6454,1.57315 0.43698,0.383204 1.02859,0.574806 1.77484,0.574805 1.02859,10e-7 1.85214,-0.363033 2.47065,-1.089104 0.62522,-0.732789 0.93783,-1.704242 0.93784,-2.914361 l 0,-0.413457 -1.84543,0 m 3.70094,-0.766406 0,6.443864 -1.85551,0 0,-1.71433 c -0.42355,0.685733 -0.9513,1.193309 -1.58324,1.522729 -0.63195,0.322697 -1.40508,0.484046 -2.31938,0.484046 -1.15634,0 -2.07737,-0.322697 -2.7631,-0.968092 -0.67901,-0.652117 -1.01852,-1.522727 -1.01852,-2.611833 0,-1.270616 0.42354,-2.228623 1.27063,-2.874024 0.8538,-0.645388 2.12442,-0.968085 3.81186,-0.968092 l 2.60175,0 0,-0.181517 c -10e-6,-0.853796 -0.28237,-1.512636 -0.84708,-1.976522 -0.55801,-0.470591 -1.34458,-0.705891 -2.35973,-0.705901 -0.6454,10e-6 -1.27399,0.07732 -1.88576,0.231939 -0.61179,0.154636 -1.20004,0.386574 -1.76475,0.695816 l 0,-1.71433 c 0.679,-0.26218 1.33784,-0.457143 1.97652,-0.584889 0.63867,-0.134446 1.26053,-0.201674 1.86559,-0.201686 1.63365,1.2e-5 2.85385,0.423552 3.6606,1.270621 0.80674,0.847091 1.21011,2.131156 1.21012,3.852201" />
      <path
         id="path2836"
         d="m 621.79817,25.912954 0,-6.111082 1.85552,0 0,15.691162 -1.85552,0 0,-1.694161 c -0.38993,0.672287 -0.88406,1.17314 -1.48239,1.50256 -0.59162,0.322697 -1.30424,0.484046 -2.13787,0.484046 -1.36474,0 -2.47738,-0.544552 -3.3379,-1.633656 -0.8538,-1.089101 -1.28071,-2.52107 -1.2807,-4.295909 -10e-6,-1.774829 0.4269,-3.206797 1.2807,-4.29591 0.86052,-1.089093 1.97316,-1.633644 3.3379,-1.633656 0.83363,1.2e-5 1.54625,0.164722 2.13787,0.494131 0.59833,0.322708 1.09246,0.820199 1.48239,1.492475 m -6.32285,3.94296 c 0,1.364745 0.279,2.437041 0.837,3.21689 0.56471,0.773131 1.33784,1.159695 2.31939,1.159694 0.98153,10e-7 1.75466,-0.386563 2.31938,-1.159694 0.56472,-0.779849 0.84708,-1.852145 0.84708,-3.21689 0,-1.364735 -0.28236,-2.433669 -0.84708,-3.206806 -0.56472,-0.779843 -1.33785,-1.169768 -2.31938,-1.169778 -0.98155,10e-6 -1.75468,0.389935 -2.31939,1.169778 -0.558,0.773137 -0.837,1.842071 -0.837,3.206806" />
      <path
         id="path2838"
         d="m 634.02034,25.933123 c -0.20842,-0.121002 -0.43699,-0.208399 -0.68573,-0.262192 -0.24203,-0.0605 -0.51095,-0.09075 -0.80675,-0.09076 -1.04877,10e-6 -1.85551,0.342875 -2.42023,1.028598 -0.558,0.679017 -0.837,1.657193 -0.83699,2.934529 l 0,5.949734 -1.8656,0 0,-11.29441 1.8656,0 0,1.754668 c 0.38992,-0.685722 0.89749,-1.193298 1.52273,-1.522729 0.62522,-0.336132 1.3849,-0.504203 2.27905,-0.504215 0.12772,1.2e-5 0.2689,0.0101 0.42354,0.03025 0.15461,0.01346 0.32605,0.03699 0.5143,0.07059 l 0.0101,1.905932" />
      <path
         id="path2840"
         d="m 635.98678,24.198624 1.85551,0 0,11.29441 -1.85551,0 0,-11.29441 m 0,-4.396752 1.85551,0 0,2.34964 -1.85551,0 0,-2.34964" />
      <path
         id="path2842"
         d="m 646.84756,29.815576 c -1.4992,6e-6 -2.53788,0.171439 -3.11605,0.514299 -0.57816,0.342871 -0.86725,0.92776 -0.86724,1.754668 -1e-5,0.658843 0.21512,1.183226 0.64539,1.57315 0.43698,0.383204 1.02859,0.574806 1.77484,0.574805 1.02859,10e-7 1.85214,-0.363033 2.47065,-1.089104 0.62522,-0.732789 0.93783,-1.704242 0.93784,-2.914361 l 0,-0.413457 -1.84543,0 m 3.70094,-0.766406 0,6.443864 -1.85551,0 0,-1.71433 c -0.42355,0.685733 -0.9513,1.193309 -1.58324,1.522729 -0.63195,0.322697 -1.40508,0.484046 -2.31938,0.484046 -1.15634,0 -2.07737,-0.322697 -2.7631,-0.968092 -0.67901,-0.652117 -1.01852,-1.522727 -1.01851,-2.611833 -1e-5,-1.270616 0.42353,-2.228623 1.27062,-2.874024 0.8538,-0.645388 2.12442,-0.968085 3.81186,-0.968092 l 2.60175,0 0,-0.181517 c -10e-6,-0.853796 -0.28237,-1.512636 -0.84708,-1.976522 -0.55801,-0.470591 -1.34458,-0.705891 -2.35973,-0.705901 -0.6454,10e-6 -1.27399,0.07732 -1.88576,0.231939 -0.61178,0.154636 -1.20003,0.386574 -1.76475,0.695816 l 0,-1.71433 c 0.679,-0.26218 1.33784,-0.457143 1.97652,-0.584889 0.63867,-0.134446 1.26053,-0.201674 1.86559,-0.201686 1.63365,1.2e-5 2.85385,0.423552 3.6606,1.270621 0.80674,0.847091 1.21011,2.131156 1.21012,3.852201" />
      <path
         id="path2844"
         d="m 663.76901,28.676051 0,6.816983 -1.85551,0 0,-6.756477 c -10e-6,-1.068928 -0.20842,-1.868947 -0.62523,-2.400062 -0.41682,-0.531097 -1.04205,-0.79665 -1.87568,-0.79666 -1.00171,10e-6 -1.79164,0.319346 -2.36981,0.958008 -0.57817,0.638681 -0.86725,1.509291 -0.86725,2.611833 l 0,6.383358 -1.86559,0 0,-11.29441 1.86559,0 0,1.754668 c 0.44371,-0.678999 0.96473,-1.186575 1.56307,-1.522729 0.60505,-0.336132 1.30087,-0.504203 2.08745,-0.504215 1.2975,1.2e-5 2.27904,0.403383 2.94461,1.210116 0.66556,0.80003 0.99834,1.979891 0.99835,3.539587" />
      <path
         id="path2846"
         d="m 671.8667,25.499498 c -0.99499,10e-6 -1.78156,0.389936 -2.35973,1.169778 -0.57817,0.773138 -0.86725,1.835349 -0.86725,3.186638 0,1.351299 0.28572,2.416872 0.85717,3.196721 0.57816,0.773131 1.3681,1.159695 2.36981,1.159694 0.98825,1e-6 1.77147,-0.389924 2.34964,-1.169778 0.57816,-0.779849 0.86724,-1.84206 0.86725,-3.186637 -10e-6,-1.337843 -0.28909,-2.396693 -0.86725,-3.176553 -0.57817,-0.786566 -1.36139,-1.179853 -2.34964,-1.179863 m 0,-1.57315 c 1.61348,1.2e-5 2.88074,0.524395 3.80178,1.57315 0.92102,1.048776 1.38153,2.500913 1.38155,4.356416 -2e-5,1.848791 -0.46053,3.300928 -1.38155,4.356415 -0.92104,1.048767 -2.1883,1.57315 -3.80178,1.57315 -1.62022,0 -2.89084,-0.524383 -3.81186,-1.57315 -0.91432,-1.055487 -1.37147,-2.507624 -1.37147,-4.356415 0,-1.855503 0.45715,-3.30764 1.37147,-4.356416 0.92102,-1.048755 2.19164,-1.573138 3.81186,-1.57315" />
      <path
         id="path2848"
         d="m 688.48561,33.798873 0,5.990071 -1.86559,0 0,-15.59032 1.86559,0 0,1.71433 c 0.38992,-0.672276 0.88069,-1.169767 1.47231,-1.492475 0.59833,-0.329409 1.31095,-0.494119 2.13787,-0.494131 1.37146,1.2e-5 2.48409,0.544563 3.3379,1.633656 0.86052,1.089113 1.29078,2.521081 1.29079,4.29591 -10e-6,1.774839 -0.43027,3.206808 -1.29079,4.295909 -0.85381,1.089104 -1.96644,1.633656 -3.3379,1.633656 -0.82692,0 -1.53954,-0.161349 -2.13787,-0.484046 -0.59162,-0.32942 -1.08239,-0.830273 -1.47231,-1.50256 m 6.31277,-3.942959 c -10e-6,-1.364735 -0.28237,-2.433669 -0.84708,-3.206806 -0.55801,-0.779843 -1.32777,-1.169768 -2.3093,-1.169778 -0.98155,10e-6 -1.75468,0.389935 -2.31939,1.169778 -0.558,0.773137 -0.837,1.842071 -0.837,3.206806 0,1.364745 0.279,2.437041 0.837,3.21689 0.56471,0.773131 1.33784,1.159695 2.31939,1.159694 0.98153,10e-7 1.75129,-0.386563 2.3093,-1.159694 0.56471,-0.779849 0.84707,-1.852145 0.84708,-3.21689" />
      <path
         id="path2850"
         d="m 709.46095,29.381952 0,0.907586 -8.53131,0 c 0.0807,1.277348 0.46387,2.252162 1.14961,2.924446 0.69245,0.665565 1.65382,0.998346 2.88411,0.998345 0.71261,1e-6 1.4017,-0.0874 2.06728,-0.262192 0.67227,-0.174792 1.33784,-0.436984 1.99669,-0.786575 l 0,1.754668 c -0.66558,0.28236 -1.34795,0.497492 -2.04712,0.645394 -0.69918,0.147903 -1.40844,0.221855 -2.12778,0.221855 -1.80173,0 -3.23034,-0.524383 -4.28583,-1.57315 -1.04877,-1.048764 -1.57315,-2.467287 -1.57315,-4.255572 0,-1.84878 0.49749,-3.314363 1.49248,-4.396753 1.0017,-1.089093 2.34963,-1.633644 4.0438,-1.633656 1.51936,1.2e-5 2.71939,0.49078 3.60009,1.472307 0.88741,0.974825 1.33112,2.302589 1.33113,3.983297 M 707.60544,28.8374 c -0.0135,-1.015145 -0.29918,-1.825249 -0.85716,-2.430315 -0.55129,-0.605048 -1.28408,-0.907577 -2.19838,-0.907587 -1.03533,10e-6 -1.8656,0.292455 -2.49082,0.877334 -0.61851,0.584898 -0.97482,1.408447 -1.06894,2.470652 l 6.6153,-0.01008" />
      <path
         id="path2852"
         d="m 714.34175,20.991819 0,3.206805 3.82194,0 0,1.442054 -3.82194,0 0,6.131252 c -1e-5,0.921035 0.12436,1.512646 0.37311,1.774835 0.25547,0.262194 0.76977,0.39329 1.5429,0.393288 l 1.90593,0 0,1.552981 -1.90593,0 c -1.43197,0 -2.42023,-0.265552 -2.96478,-0.796659 -0.54456,-0.537828 -0.81683,-1.512642 -0.81683,-2.924445 l 0,-6.131252 -1.36138,0 0,-1.442054 1.36138,0 0,-3.206805 1.8656,0" />
      <path
         id="path2854"
         d="m 727.15888,25.933123 c -0.20841,-0.121002 -0.43699,-0.208399 -0.68573,-0.262192 -0.24203,-0.0605 -0.51094,-0.09075 -0.80674,-0.09076 -1.04877,10e-6 -1.85552,0.342875 -2.42023,1.028598 -0.558,0.679017 -0.837,1.657193 -0.837,2.934529 l 0,5.949734 -1.86559,0 0,-11.29441 1.86559,0 0,1.754668 c 0.38992,-0.685722 0.8975,-1.193298 1.52273,-1.522729 0.62522,-0.336132 1.3849,-0.504203 2.27905,-0.504215 0.12773,1.2e-5 0.26891,0.0101 0.42354,0.03025 0.15462,0.01346 0.32605,0.03699 0.5143,0.07059 l 0.0101,1.905932" />
      <path
         id="path2856"
         d="m 729.12532,24.198624 1.85551,0 0,11.29441 -1.85551,0 0,-11.29441 m 0,-4.396752 1.85551,0 0,2.34964 -1.85551,0 0,-2.34964" />
      <path
         id="path2858"
         d="m 742.98115,24.632249 0,1.734499 c -0.5244,-0.289074 -1.05214,-0.504205 -1.58324,-0.645395 -0.52439,-0.147893 -1.05549,-0.221845 -1.59332,-0.221855 -1.20339,10e-6 -2.13787,0.383213 -2.80343,1.14961 -0.66557,0.759692 -0.99835,1.828626 -0.99834,3.206806 -1e-5,1.378191 0.33277,2.450486 0.99834,3.21689 0.66556,0.759685 1.60004,1.139526 2.80343,1.139525 0.53783,1e-6 1.06893,-0.07059 1.59332,-0.21177 0.5311,-0.147902 1.05884,-0.366394 1.58324,-0.655479 l 0,1.71433 c -0.51767,0.242023 -1.0555,0.42354 -1.61349,0.544552 -0.55128,0.121011 -1.13953,0.181517 -1.76475,0.181517 -1.70089,0 -3.05219,-0.534467 -4.05389,-1.603403 -1.00171,-1.068933 -1.50256,-2.510986 -1.50256,-4.326162 0,-1.842057 0.50422,-3.290833 1.51265,-4.346331 1.01514,-1.055479 2.40341,-1.583223 4.16481,-1.583235 0.57144,1.2e-5 1.12943,0.06052 1.67399,0.181518 0.54455,0.1143 1.07229,0.289094 1.58324,0.524383" />
      <path
         id="path2860"
         d="m 755.61676,28.676051 0,6.816983 -1.85551,0 0,-6.756477 c -10e-6,-1.068928 -0.20842,-1.868947 -0.62523,-2.400062 -0.41682,-0.531097 -1.04205,-0.79665 -1.87568,-0.79666 -1.00171,10e-6 -1.79164,0.319346 -2.3698,0.958008 -0.57817,0.638681 -0.86726,1.509291 -0.86725,2.611833 l 0,6.383358 -1.8656,0 0,-15.691162 1.8656,0 0,6.15142 c 0.4437,-0.678999 0.96472,-1.186575 1.56306,-1.522729 0.60505,-0.336132 1.30087,-0.504203 2.08745,-0.504215 1.2975,1.2e-5 2.27904,0.403383 2.94462,1.210116 0.66555,0.80003 0.99833,1.979891 0.99834,3.539587" />
    </g>
    <g
       id="text3017"
       style="font-size:20.65263557px;font-style:normal;font-variant:normal;font-weight:normal;font-stretch:normal;fill:#92cc47;fill-opacity:1;stroke:none;font-family:Sans;-inkscape-font-specification:Helvetica"
       transform="matrix(1.8051948,0,0,1.8051948,-712.47365,-21.028812)">
      <path
         id="path2863"
         d="m 581.3501,59.71522 0,5.990071 -1.8656,0 0,-15.590319 1.8656,0 0,1.71433 c 0.38992,-0.672276 0.88069,-1.169768 1.47231,-1.492476 0.59833,-0.329409 1.31095,-0.494119 2.13787,-0.49413 1.37145,1.1e-5 2.48408,0.544563 3.3379,1.633656 0.86051,1.089112 1.29078,2.521081 1.29079,4.295909 -10e-6,1.77484 -0.43028,3.206808 -1.29079,4.29591 -0.85382,1.089104 -1.96645,1.633655 -3.3379,1.633655 -0.82692,0 -1.53954,-0.161348 -2.13787,-0.484046 -0.59162,-0.32942 -1.08239,-0.830272 -1.47231,-1.50256 m 6.31277,-3.942959 c -10e-6,-1.364734 -0.28237,-2.433668 -0.84708,-3.206806 -0.55801,-0.779842 -1.32778,-1.169768 -2.30931,-1.169778 -0.98154,1e-5 -1.75467,0.389936 -2.31938,1.169778 -0.55801,0.773138 -0.837,1.842072 -0.837,3.206806 0,1.364746 0.27899,2.437041 0.837,3.21689 0.56471,0.773131 1.33784,1.159695 2.31938,1.159694 0.98153,10e-7 1.7513,-0.386563 2.30931,-1.159694 0.56471,-0.779849 0.84707,-1.852144 0.84708,-3.21689" />
      <path
         id="path2865"
         d="m 602.32543,55.298299 0,0.907587 -8.53131,0 c 0.0807,1.277348 0.46387,2.252162 1.14961,2.924445 0.69245,0.665565 1.65382,0.998347 2.88411,0.998345 0.71261,2e-6 1.4017,-0.0874 2.06728,-0.262191 0.67227,-0.174793 1.33784,-0.436984 1.99669,-0.786575 l 0,1.754667 c -0.66558,0.282361 -1.34795,0.497492 -2.04711,0.645395 -0.69919,0.147903 -1.40845,0.221854 -2.12779,0.221854 -1.80173,0 -3.23034,-0.524383 -4.28583,-1.57315 -1.04876,-1.048764 -1.57315,-2.467287 -1.57315,-4.255572 0,-1.84878 0.49749,-3.314363 1.49248,-4.396752 1.0017,-1.089093 2.34964,-1.633645 4.0438,-1.633656 1.51936,1.1e-5 2.71939,0.49078 3.60009,1.472307 0.88741,0.974824 1.33112,2.302588 1.33113,3.983296 m -1.85551,-0.544552 c -0.0135,-1.015144 -0.29918,-1.825249 -0.85716,-2.430315 -0.55129,-0.605048 -1.28408,-0.907576 -2.19838,-0.907586 -1.03533,10e-6 -1.8656,0.292454 -2.49082,0.877333 -0.61851,0.584898 -0.97482,1.408448 -1.06894,2.470653 l 6.6153,-0.01009" />
      <path
         id="path2867"
         d="m 607.20623,46.908166 0,3.206806 3.82195,0 0,1.442054 -3.82195,0 0,6.131251 c 0,0.921035 0.12437,1.512647 0.37312,1.774836 0.25546,0.262193 0.76976,0.393289 1.5429,0.393287 l 1.90593,0 0,1.552982 -1.90593,0 c -1.43198,0 -2.42024,-0.265553 -2.96479,-0.796659 -0.54455,-0.537828 -0.81683,-1.512642 -0.81682,-2.924446 l 0,-6.131251 -1.36138,0 0,-1.442054 1.36138,0 0,-3.206806 1.86559,0" />
      <path
         id="path2869"
         d="m 620.02337,51.84947 c -0.20842,-0.121001 -0.43699,-0.208399 -0.68573,-0.262191 -0.24203,-0.0605 -0.51095,-0.09075 -0.80675,-0.09076 -1.04877,1e-5 -1.85551,0.342876 -2.42023,1.028598 -0.558,0.679018 -0.837,1.657193 -0.83699,2.93453 l 0,5.949734 -1.8656,0 0,-11.29441 1.8656,0 0,1.754667 c 0.38992,-0.685722 0.8975,-1.193297 1.52273,-1.522728 0.62522,-0.336132 1.3849,-0.504204 2.27905,-0.504215 0.12772,1.1e-5 0.2689,0.0101 0.42354,0.03025 0.15461,0.01346 0.32605,0.03699 0.5143,0.07059 l 0.0101,1.905931" />
      <path
         id="path2871"
         d="m 621.98981,50.114972 1.85551,0 0,11.29441 -1.85551,0 0,-11.29441 m 0,-4.396753 1.85551,0 0,2.349641 -1.85551,0 0,-2.349641" />
      <path
         id="path2873"
         d="m 635.84563,50.548596 0,1.734499 c -0.5244,-0.289074 -1.05214,-0.504205 -1.58324,-0.645395 -0.52439,-0.147893 -1.0555,-0.221844 -1.59332,-0.221854 -1.20339,10e-6 -2.13787,0.383213 -2.80343,1.149609 -0.66557,0.759692 -0.99835,1.828626 -0.99835,3.206806 0,1.378191 0.33278,2.450487 0.99835,3.21689 0.66556,0.759685 1.60004,1.139527 2.80343,1.139525 0.53782,2e-6 1.06893,-0.07059 1.59332,-0.21177 0.5311,-0.147901 1.05884,-0.366394 1.58324,-0.655479 l 0,1.71433 c -0.51767,0.242023 -1.0555,0.423541 -1.61349,0.544552 -0.55128,0.121011 -1.13953,0.181517 -1.76475,0.181517 -1.70089,0 -3.05219,-0.534467 -4.05389,-1.603402 -1.00171,-1.068933 -1.50256,-2.510986 -1.50256,-4.326163 0,-1.842057 0.50421,-3.290832 1.51265,-4.346331 1.01514,-1.055478 2.40341,-1.583223 4.16481,-1.583234 0.57143,1.1e-5 1.12943,0.06052 1.67399,0.181517 0.54454,0.1143 1.07229,0.289094 1.58324,0.524383" />
      <path
         id="path2875"
         d="m 648.48125,54.592399 0,6.816983 -1.85551,0 0,-6.756478 c -10e-6,-1.068927 -0.20842,-1.868947 -0.62523,-2.400062 -0.41683,-0.531096 -1.04205,-0.796649 -1.87568,-0.796659 -1.00171,10e-6 -1.79165,0.319346 -2.36981,0.958008 -0.57817,0.63868 -0.86725,1.50929 -0.86725,2.611832 l 0,6.383359 -1.86559,0 0,-15.691163 1.86559,0 0,6.15142 c 0.44371,-0.678999 0.96473,-1.186575 1.56307,-1.522728 0.60505,-0.336132 1.30087,-0.504204 2.08745,-0.504215 1.2975,1.1e-5 2.27904,0.403383 2.94461,1.210115 0.66555,0.80003 0.99834,1.979892 0.99835,3.539588" />
      <path
         id="path2877"
         d="m 657.94032,55.994116 c -1e-5,0.961373 0.23865,1.717695 0.71599,2.268966 0.47731,0.544554 1.13279,0.81683 1.96643,0.816828 0.8269,2e-6 1.47566,-0.275635 1.94627,-0.826912 0.47731,-0.551271 0.71597,-1.304231 0.71599,-2.258882 -2e-5,-0.941195 -0.24204,-1.687432 -0.72607,-2.238714 -0.48406,-0.557989 -1.13618,-0.836988 -1.95636,-0.836996 -0.81347,8e-6 -1.46223,0.275645 -1.94626,0.826912 -0.47734,0.551282 -0.716,1.30088 -0.71599,2.248798 m 5.49594,3.015204 c -0.40338,0.517662 -0.86726,0.900865 -1.39163,1.149609 -0.51767,0.242024 -1.12273,0.363036 -1.81517,0.363035 -1.15635,1e-6 -2.09755,-0.416816 -2.82361,-1.250453 -0.71935,-0.840355 -1.07902,-1.932819 -1.07902,-3.277395 0,-1.344566 0.36303,-2.43703 1.08911,-3.277396 0.72606,-0.840349 1.6639,-1.260527 2.81352,-1.260537 0.69244,10e-6 1.30086,0.127744 1.82525,0.383203 0.52437,0.248755 0.98489,0.628597 1.38155,1.139525 l 0,-1.321042 1.44206,0 0,7.422041 c 0.98152,-0.147901 1.74792,-0.594971 2.29921,-1.341211 0.55798,-0.752957 0.83698,-1.724409 0.837,-2.914362 -2e-5,-0.719339 -0.10758,-1.394986 -0.3227,-2.026943 -0.20842,-0.63194 -0.52776,-1.216828 -0.958,-1.754667 -0.6992,-0.880684 -1.553,-1.55297 -2.56142,-2.016859 -1.00171,-0.470588 -2.09418,-0.705888 -3.27739,-0.705901 -0.82692,1.3e-5 -1.62022,0.110941 -2.37989,0.332782 -0.7597,0.215144 -1.46223,0.537841 -2.10762,0.968092 -1.0555,0.685743 -1.88241,1.586606 -2.48074,2.702591 -0.59161,1.109281 -0.88742,2.312672 -0.88742,3.610178 0,1.068939 0.1916,2.070645 0.57481,3.00512 0.38992,0.934479 0.95128,1.758029 1.68408,2.470652 0.70589,0.699177 1.52272,1.230283 2.45048,1.593318 0.92775,0.369756 1.91937,0.554634 2.97487,0.554637 0.86723,-3e-6 1.71768,-0.147905 2.55132,-0.443709 0.84035,-0.289085 1.61011,-0.705902 2.30931,-1.250453 l 0.90758,1.119357 c -0.84037,0.652115 -1.75804,1.149607 -2.75301,1.492475 -0.98827,0.349586 -1.99334,0.52438 -3.0152,0.524384 -1.24374,-4e-6 -2.41688,-0.221858 -3.51942,-0.665564 -1.10256,-0.436988 -2.0841,-1.07566 -2.94462,-1.916016 -0.86053,-0.840358 -1.516,-1.81181 -1.96643,-2.914361 -0.45044,-1.109269 -0.67565,-2.299215 -0.67565,-3.56984 0,-1.223555 0.22857,-2.38997 0.68573,-3.49925 0.45715,-1.109263 1.10927,-2.084077 1.95635,-2.924446 0.86725,-0.853791 1.86895,-1.505908 3.00512,-1.956353 1.13616,-0.45714 2.33955,-0.685718 3.61018,-0.685732 1.42524,1.4e-5 2.74628,0.292459 3.96313,0.877334 1.22354,0.584902 2.24878,1.415174 3.07571,2.49082 0.50419,0.658851 0.8874,1.374836 1.14961,2.147955 0.26889,0.773138 0.40335,1.573158 0.40337,2.400062 -2e-5,1.768118 -0.53449,3.163111 -1.6034,4.184983 -1.06895,1.021876 -2.54462,1.552982 -4.42701,1.593318 l 0,-1.552981" />
      <path
         id="path2879"
         d="m 680.28712,55.631081 c -10e-6,-1.344566 -0.27901,-2.386608 -0.837,-3.126131 -0.55128,-0.739506 -1.32777,-1.109263 -2.32947,-1.109273 -0.99499,1e-5 -1.77148,0.369767 -2.32947,1.109273 -0.55128,0.739523 -0.82692,1.781565 -0.82692,3.126131 0,1.337854 0.27564,2.376536 0.82692,3.116047 0.55799,0.739517 1.33448,1.109274 2.32947,1.109272 1.0017,2e-6 1.77819,-0.369755 2.32947,-1.109272 0.55799,-0.739511 0.83699,-1.778193 0.837,-3.116047 m 1.85551,4.376584 c -1e-5,1.922738 -0.42692,3.351345 -1.28071,4.285825 -0.85381,0.941197 -2.16141,1.411797 -3.92279,1.411801 -0.65212,-4e-6 -1.26726,-0.05043 -1.84543,-0.151264 -0.57817,-0.09412 -1.13952,-0.242027 -1.68407,-0.443709 l 0,-1.805089 c 0.54455,0.295804 1.08237,0.514297 1.61348,0.655479 0.53111,0.141178 1.0723,0.211768 1.62358,0.211771 1.21683,-3e-6 2.12777,-0.319339 2.73284,-0.958008 0.60505,-0.631951 0.90758,-1.589958 0.90759,-2.874024 l 0,-0.917671 c -0.38322,0.665565 -0.87398,1.163056 -1.47231,1.492475 -0.59834,0.329421 -1.31433,0.494131 -2.14796,0.494131 -1.38491,0 -2.5009,-0.527744 -3.34798,-1.583234 -0.84708,-1.055487 -1.27062,-2.453841 -1.27062,-4.195067 0,-1.747937 0.42354,-3.149652 1.27062,-4.205151 0.84708,-1.055478 1.96307,-1.583223 3.34798,-1.583234 0.83363,1.1e-5 1.54962,0.164721 2.14796,0.49413 0.59833,0.329431 1.08909,0.826923 1.47231,1.492476 l 0,-1.71433 1.85551,0 0,9.892693" />
      <path
         id="path2881"
         d="m 694.75808,52.283095 c 0.46386,-0.833625 1.0185,-1.448766 1.66391,-1.845426 0.64538,-0.396637 1.40506,-0.594962 2.27905,-0.594973 1.17648,1.1e-5 2.08407,0.413467 2.72276,1.240368 0.63865,0.820199 0.95799,1.989976 0.958,3.509335 l 0,6.816983 -1.86559,0 0,-6.756478 c -2e-5,-1.082373 -0.19162,-1.885754 -0.57481,-2.410146 -0.38321,-0.524374 -0.9681,-0.786565 -1.75466,-0.786575 -0.96139,10e-6 -1.72107,0.319346 -2.27905,0.958008 -0.55801,0.63868 -0.83701,1.50929 -0.837,2.611832 l 0,6.383359 -1.86559,0 0,-6.756478 c -10e-6,-1.089096 -0.19162,-1.892477 -0.57481,-2.410146 -0.38321,-0.524374 -0.97482,-0.786565 -1.77484,-0.786575 -0.94792,10e-6 -1.70088,0.322707 -2.25888,0.968092 -0.558,0.638681 -0.837,1.505929 -0.83699,2.601748 l 0,6.383359 -1.8656,0 0,-11.29441 1.8656,0 0,1.754667 c 0.42353,-0.692445 0.93111,-1.203382 1.52272,-1.532813 0.59161,-0.329409 1.29415,-0.494119 2.10762,-0.49413 0.82018,1.1e-5 1.516,0.20842 2.08745,0.625226 0.57816,0.416828 1.00506,1.021885 1.28071,1.815173" />
      <path
         id="path2883"
         d="m 711.22573,55.731924 c -1.49921,6e-6 -2.53789,0.171438 -3.11605,0.514299 -0.57817,0.342871 -0.86725,0.927759 -0.86725,1.754667 0,0.658844 0.21513,1.183226 0.6454,1.57315 0.43698,0.383205 1.02859,0.574806 1.77483,0.574805 1.02859,10e-7 1.85214,-0.363033 2.47065,-1.089104 0.62522,-0.732789 0.93783,-1.704242 0.93784,-2.914361 l 0,-0.413456 -1.84542,0 m 3.70093,-0.766406 0,6.443864 -1.85551,0 0,-1.71433 c -0.42355,0.685733 -0.95129,1.193308 -1.58323,1.522728 -0.63196,0.322698 -1.40508,0.484046 -2.31939,0.484046 -1.15633,0 -2.07737,-0.322697 -2.76309,-0.968092 -0.67902,-0.652116 -1.01852,-1.522726 -1.01852,-2.611832 0,-1.270617 0.42354,-2.228624 1.27062,-2.874024 0.8538,-0.645388 2.12442,-0.968085 3.81187,-0.968092 l 2.60174,0 0,-0.181518 c -10e-6,-0.853795 -0.28237,-1.512635 -0.84708,-1.976522 -0.558,-0.47059 -1.34458,-0.70589 -2.35972,-0.7059 -0.6454,10e-6 -1.27399,0.07732 -1.88576,0.231939 -0.61179,0.154635 -1.20004,0.386574 -1.76476,0.695816 l 0,-1.71433 c 0.67901,-0.262181 1.33785,-0.457144 1.97653,-0.584889 0.63866,-0.134446 1.26053,-0.201675 1.86559,-0.201686 1.63365,1.1e-5 2.85385,0.423551 3.6606,1.270621 0.80673,0.84709 1.2101,2.131156 1.21011,3.852201" />
      <path
         id="path2885"
         d="m 718.75869,50.114972 1.85551,0 0,11.29441 -1.85551,0 0,-11.29441 m 0,-4.396753 1.85551,0 0,2.349641 -1.85551,0 0,-2.349641" />
      <path
         id="path2887"
         d="m 724.48658,45.718219 1.85551,0 0,15.691163 -1.85551,0 0,-15.691163" />
      <path
         id="path2889"
         d="m 730.47665,58.847971 2.12779,0 0,2.561411 -2.12779,0 0,-2.561411" />
      <path
         id="path2891"
         d="m 744.91737,50.548596 0,1.734499 c -0.5244,-0.289074 -1.05214,-0.504205 -1.58324,-0.645395 -0.52439,-0.147893 -1.0555,-0.221844 -1.59332,-0.221854 -1.2034,10e-6 -2.13787,0.383213 -2.80343,1.149609 -0.66557,0.759692 -0.99835,1.828626 -0.99835,3.206806 0,1.378191 0.33278,2.450487 0.99835,3.21689 0.66556,0.759685 1.60003,1.139527 2.80343,1.139525 0.53782,2e-6 1.06893,-0.07059 1.59332,-0.21177 0.5311,-0.147901 1.05884,-0.366394 1.58324,-0.655479 l 0,1.71433 c -0.51767,0.242023 -1.0555,0.423541 -1.61349,0.544552 -0.55128,0.121011 -1.13953,0.181517 -1.76475,0.181517 -1.70089,0 -3.05219,-0.534467 -4.05389,-1.603402 -1.00171,-1.068933 -1.50256,-2.510986 -1.50256,-4.326163 0,-1.842057 0.50421,-3.290832 1.51264,-4.346331 1.01515,-1.055478 2.40342,-1.583223 4.16482,-1.583234 0.57143,1.1e-5 1.12943,0.06052 1.67399,0.181517 0.54454,0.1143 1.07229,0.289094 1.58324,0.524383" />
      <path
         id="path2893"
         d="m 752.54108,51.415846 c -0.99499,10e-6 -1.78156,0.389935 -2.35972,1.169778 -0.57817,0.773137 -0.86725,1.835349 -0.86725,3.186637 0,1.3513 0.28572,2.416873 0.85716,3.196722 0.57817,0.77313 1.3681,1.159695 2.36981,1.159693 0.98826,2e-6 1.77147,-0.389924 2.34964,-1.169778 0.57816,-0.779849 0.86724,-1.84206 0.86725,-3.186637 -10e-6,-1.337843 -0.28909,-2.396693 -0.86725,-3.176553 -0.57817,-0.786565 -1.36138,-1.179852 -2.34964,-1.179862 m 0,-1.57315 c 1.61348,1.1e-5 2.88074,0.524394 3.80178,1.57315 0.92102,1.048775 1.38154,2.500912 1.38155,4.356415 -1e-5,1.848791 -0.46053,3.300928 -1.38155,4.356415 -0.92104,1.048767 -2.1883,1.57315 -3.80178,1.57315 -1.62021,0 -2.89083,-0.524383 -3.81186,-1.57315 -0.91431,-1.055487 -1.37146,-2.507624 -1.37146,-4.356415 0,-1.855503 0.45715,-3.30764 1.37146,-4.356415 0.92103,-1.048756 2.19165,-1.573139 3.81186,-1.57315" />
      <path
         id="path2895"
         d="m 769.58354,52.283095 c 0.46387,-0.833625 1.0185,-1.448766 1.66391,-1.845426 0.64538,-0.396637 1.40506,-0.594962 2.27905,-0.594973 1.17648,1.1e-5 2.08407,0.413467 2.72276,1.240368 0.63865,0.820199 0.95799,1.989976 0.95801,3.509335 l 0,6.816983 -1.8656,0 0,-6.756478 c -2e-5,-1.082373 -0.19162,-1.885754 -0.5748,-2.410146 -0.38322,-0.524374 -0.96811,-0.786565 -1.75467,-0.786575 -0.96138,10e-6 -1.72107,0.319346 -2.27905,0.958008 -0.55801,0.63868 -0.83701,1.50929 -0.837,2.611832 l 0,6.383359 -1.86559,0 0,-6.756478 c -1e-5,-1.089096 -0.19161,-1.892477 -0.57481,-2.410146 -0.38321,-0.524374 -0.97482,-0.786565 -1.77483,-0.786575 -0.94793,10e-6 -1.70089,0.322707 -2.25888,0.968092 -0.55801,0.638681 -0.83701,1.505929 -0.837,2.601748 l 0,6.383359 -1.8656,0 0,-11.29441 1.8656,0 0,1.754667 c 0.42353,-0.692445 0.93111,-1.203382 1.52273,-1.532813 0.5916,-0.329409 1.29414,-0.494119 2.10761,-0.49413 0.82019,1.1e-5 1.516,0.20842 2.08745,0.625226 0.57816,0.416828 1.00506,1.021885 1.28071,1.815173" />
    </g>
    <text
       xml:space="preserve"
       style="font-size:40px;font-style:normal;font-weight:normal;fill:#92cc47;fill-opacity:1;stroke:none;font-family:Bitstream Vera Sans"
       x="402.49805"
       y="157.80255"
       id="text2928"><tspan
         sodipodi:role="line"
         id="tspan2930"
         x="402.49805"
         y="157.80255">#TDC2010</tspan></text>
  </g>
</svg>
